<svg version="1.1" xmlns="http://www.w3.org/2000/svg" width="179" height="36" viewBox="0 0 3593 739"><path d="M0 0 C26.4 0 52.8 0 80 0 C80 24.75 80 49.5 80 75 C104.75 75.33 129.5 75.66 155 76 C155 50.92 155 25.84 155 0 C199.33566319 -0.02405103 199.33566319 -0.02405103 215.37939453 -0.01806641 C216.44263514 -0.01767152 217.50587574 -0.01727664 218.60133576 -0.01686978 C261.04402675 0.00091999 303.48656873 0.09760857 345.92902184 0.23571968 C348.69348512 0.24467346 351.45794855 0.25358156 354.22241211 0.26245117 C354.90796663 0.26465474 355.59352116 0.26685832 356.29985006 0.26912867 C367.57416995 0.30505997 378.84848905 0.32966135 390.12284606 0.35034702 C401.91747518 0.37221256 413.71203462 0.40527028 425.50660425 0.44870156 C432.04370791 0.47248195 438.58075536 0.49126158 445.11790276 0.49761391 C451.2102155 0.50371312 457.30232902 0.52388407 463.39456749 0.55427551 C465.60139324 0.56294618 467.80824508 0.56680165 470.01508713 0.56500816 C525.31084149 0.53428442 579.89270987 15.33179071 620 55 C626.39169506 61.53799995 632.08969932 68.28530254 637 76 C637.37624512 76.58458984 637.75249023 77.16917969 638.14013672 77.77148438 C663.42283719 117.4455673 670.06006591 168.21158444 660.38183594 213.91943359 C657.5498838 226.18092067 653.58909547 237.73166235 648 249 C647.45601562 250.11503906 646.91203125 251.23007813 646.3515625 252.37890625 C639.45791847 265.82636679 630.43510296 277.16842656 620 288 C619.35804688 288.70511719 618.71609375 289.41023438 618.0546875 290.13671875 C608.26166901 300.58684454 595.61810149 308.41769463 583 315 C582.01112793 315.52795166 581.02225586 316.05590332 580.00341797 316.59985352 C571.94862017 320.7867308 563.87594214 324.03041261 555.23632812 326.80053711 C553.20585853 327.451655 551.18089348 328.11811568 549.15625 328.78710938 C539.3471352 332 539.3471352 332 537 332 C546.27377777 347.49177781 555.56972373 362.96920243 564.95187378 378.39562988 C569.79703782 386.36265022 574.61611626 394.34450039 579.40380859 402.34619141 C583.73866349 409.58270909 588.11795807 416.7920117 592.5 424 C597.82849621 432.76480394 603.13571458 441.54158425 608.40234375 450.34375 C612.73769167 457.58107878 617.117465 464.79120064 621.5 472 C626.82405859 480.75750453 632.12701896 489.52688055 637.38916016 498.32177734 C642.91324216 507.54365836 648.50298478 516.72575996 654.08917236 525.91009521 C655.09553157 527.56593044 656.10003254 529.22289459 657.10449219 530.87988281 C658.34361111 532.91954533 659.58881094 534.95552926 660.84082031 536.98730469 C661.39092773 537.88610352 661.94103516 538.78490234 662.5078125 539.7109375 C662.99137207 540.4951709 663.47493164 541.2794043 663.97314453 542.08740234 C665 544 665 544 665 546 C616.49 546 567.98 546 518 546 C506 525 506 525 494 504 C492.02193359 500.53886719 492.02193359 500.53886719 490.00390625 497.0078125 C487.65948221 492.90546818 485.3162008 488.80247455 482.97433472 484.69866943 C476.17522042 472.78423855 469.36246827 460.87811196 462.5 449 C457.33176906 440.05441025 452.18568659 431.09645156 447.0625 422.125 C446.73105988 421.54461975 446.39961975 420.9642395 446.05813599 420.36627197 C443.36765892 415.6544859 440.67861348 410.94188318 437.98962402 406.22924805 C430.32987373 392.8054778 422.66036332 379.38758598 414.9375 366 C414.34251709 364.96858887 413.74753418 363.93717773 413.13452148 362.87451172 C409.10946254 355.9045506 405.05558409 348.95242987 401 342 C391.43 341.67 381.86 341.34 372 341 C372 408.65 372 476.3 372 546 C300.72 546 229.44 546 156 546 C156 519.6 156 493.2 156 466 C172.5 466 189 466 206 466 C206 440.92 206 415.84 206 390 C189.5 390 173 390 156 390 C156 364.26 156 338.52 156 312 C130.26 312 104.52 312 78 312 C78 285.6 78 259.2 78 232 C103.74 232 129.48 232 156 232 C156 206.59 156 181.18 156 155 C130.26 155 104.52 155 78 155 C78 129.26 78 103.52 78 77 C52.26 77 26.52 77 0 77 C0 51.59 0 26.18 0 0 Z M372 113 C372 158.21 372 203.42 372 250 C385.014375 250.020625 398.02875 250.04125 411.4375 250.0625 C415.51150146 250.071604 419.58550293 250.08070801 423.78295898 250.09008789 C427.50958973 250.09343708 427.50958973 250.09343708 431.23622131 250.09544373 C432.86631037 250.09695601 434.49639848 250.10042301 436.1264801 250.10557556 C476.50939983 250.25881253 476.50939983 250.25881253 511.4375 231.8203125 C525.66932448 217.15576363 529.40862736 197.84687372 529.2109375 178.09765625 C528.57616816 161.83267146 524.14993409 146.23888731 513 134 C512.38253906 133.30261719 511.76507812 132.60523438 511.12890625 131.88671875 C502.53164436 122.70131419 492.02761909 118.11714528 480 115 C479.33553864 114.82314667 478.67107727 114.64629333 477.98648071 114.46408081 C467.71498896 112.18811118 457.16392584 112.75081568 446.70703125 112.8046875 C444.79211544 112.80763313 442.87719802 112.80967036 440.96228027 112.81079102 C433.91232874 112.82121806 426.86241182 112.84914052 419.8125 112.875 C396.1453125 112.936875 396.1453125 112.936875 372 113 Z M157 233 C157 258.41 157 283.82 157 310 C182.41 310 207.82 310 234 310 C234 284.59 234 259.18 234 233 C208.59 233 183.18 233 157 233 Z " fill="#8212D8" transform="translate(55,0)"/><path d="M0 0 C0.79148437 0.74765625 1.58296875 1.4953125 2.3984375 2.265625 C3.52378906 3.29429687 3.52378906 3.29429687 4.671875 4.34375 C15.05864748 14.18385025 21.6096272 25.65783445 28.3984375 38.265625 C28.7284375 15.495625 29.0584375 -7.274375 29.3984375 -30.734375 C70.3184375 -30.734375 111.2384375 -30.734375 153.3984375 -30.734375 C153.3984375 103.245625 153.3984375 237.225625 153.3984375 375.265625 C112.4784375 375.265625 71.5584375 375.265625 29.3984375 375.265625 C28.9034375 341.110625 28.9034375 341.110625 28.3984375 306.265625 C25.4284375 311.545625 22.4584375 316.825625 19.3984375 322.265625 C-1.61642089 351.85233353 -30.97780678 370.77297718 -66.73828125 377.7109375 C-106.03628409 383.35332011 -145.4475292 379.45793029 -180.6015625 360.265625 C-181.67148438 359.688125 -182.74140625 359.110625 -183.84375 358.515625 C-196.08433459 351.64818014 -206.4873418 342.88788075 -216.6015625 333.265625 C-217.28605469 332.64558594 -217.97054687 332.02554687 -218.67578125 331.38671875 C-231.28615536 319.56944993 -240.58575057 304.42522286 -248.6015625 289.265625 C-249.00358887 288.50556152 -249.40561523 287.74549805 -249.81982422 286.96240234 C-280.75075917 227.43470196 -282.3287193 150.40643631 -262.55908203 87.19628906 C-255.71623597 66.25250423 -245.7373374 46.94104318 -232.6015625 29.265625 C-231.89773437 28.316875 -231.19390625 27.368125 -230.46875 26.390625 C-202.41299814 -9.45246483 -163.10894917 -29.28123619 -118.5390625 -35.13671875 C-75.80368807 -39.5680857 -32.00512686 -29.68298832 0 0 Z M-125.8515625 102.66796875 C-138.00869717 116.93835535 -144.37218264 134.83435664 -146.6015625 153.265625 C-146.71242188 154.13058594 -146.82328125 154.99554688 -146.9375 155.88671875 C-149.94095112 183.20188904 -146.46533636 214.46867823 -129.46484375 236.97265625 C-128.84996094 237.72933594 -128.23507813 238.48601562 -127.6015625 239.265625 C-126.93511719 240.09449219 -126.26867188 240.92335938 -125.58203125 241.77734375 C-111.05822011 258.86571975 -90.7873651 268.29733364 -68.6015625 270.265625 C-46.22913867 271.6342784 -23.7934416 267.50291513 -5.91015625 253.09765625 C-3.40958523 250.87959249 -0.99916623 248.59414524 1.3984375 246.265625 C2.09710937 245.64042969 2.79578125 245.01523437 3.515625 244.37109375 C22.36293919 226.95382869 28.3812007 199.94251995 29.58984375 175.375 C30.02536479 148.08234837 23.29296531 120.21040061 4.1496582 99.92358398 C-12.13736116 83.31007078 -33.01655572 74.35469232 -56.22680664 74.02416992 C-83.99185938 73.93980697 -106.69548527 82.21486545 -125.8515625 102.66796875 Z " fill="#8212D8" transform="translate(3439.6015625,171.734375)"/><path d="M0 0 C0.79148437 0.74765625 1.58296875 1.4953125 2.3984375 2.265625 C3.52378906 3.29429687 3.52378906 3.29429687 4.671875 4.34375 C15.05864748 14.18385025 21.6096272 25.65783445 28.3984375 38.265625 C28.7284375 15.495625 29.0584375 -7.274375 29.3984375 -30.734375 C70.3184375 -30.734375 111.2384375 -30.734375 153.3984375 -30.734375 C153.3984375 103.245625 153.3984375 237.225625 153.3984375 375.265625 C112.4784375 375.265625 71.5584375 375.265625 29.3984375 375.265625 C28.9034375 341.110625 28.9034375 341.110625 28.3984375 306.265625 C25.4284375 311.545625 22.4584375 316.825625 19.3984375 322.265625 C-1.61642089 351.85233353 -30.97780678 370.77297718 -66.73828125 377.7109375 C-106.03628409 383.35332011 -145.4475292 379.45793029 -180.6015625 360.265625 C-181.67148438 359.688125 -182.74140625 359.110625 -183.84375 358.515625 C-196.08433459 351.64818014 -206.4873418 342.88788075 -216.6015625 333.265625 C-217.28605469 332.64558594 -217.97054688 332.02554687 -218.67578125 331.38671875 C-231.28615536 319.56944993 -240.58575057 304.42522286 -248.6015625 289.265625 C-249.00358887 288.50556152 -249.40561523 287.74549805 -249.81982422 286.96240234 C-280.75075917 227.43470196 -282.3287193 150.40643631 -262.55908203 87.19628906 C-255.71623597 66.25250423 -245.7373374 46.94104318 -232.6015625 29.265625 C-231.89773438 28.316875 -231.19390625 27.368125 -230.46875 26.390625 C-202.41299814 -9.45246483 -163.10894917 -29.28123619 -118.5390625 -35.13671875 C-75.80368807 -39.5680857 -32.00512686 -29.68298832 0 0 Z M-125.8515625 102.66796875 C-138.00869717 116.93835535 -144.37218264 134.83435664 -146.6015625 153.265625 C-146.71242188 154.13058594 -146.82328125 154.99554688 -146.9375 155.88671875 C-149.94095112 183.20188904 -146.46533636 214.46867823 -129.46484375 236.97265625 C-128.84996094 237.72933594 -128.23507812 238.48601562 -127.6015625 239.265625 C-126.93511719 240.09449219 -126.26867188 240.92335938 -125.58203125 241.77734375 C-111.05822011 258.86571975 -90.7873651 268.29733364 -68.6015625 270.265625 C-46.22913867 271.6342784 -23.7934416 267.50291513 -5.91015625 253.09765625 C-3.40958523 250.87959249 -0.99916623 248.59414524 1.3984375 246.265625 C2.09710937 245.64042969 2.79578125 245.01523437 3.515625 244.37109375 C22.36293919 226.95382869 28.3812007 199.94251995 29.58984375 175.375 C30.02536479 148.08234837 23.29296531 120.21040061 4.1496582 99.92358398 C-12.13736116 83.31007078 -33.01655572 74.35469232 -56.22680664 74.02416992 C-83.99185938 73.93980697 -106.69548527 82.21486545 -125.8515625 102.66796875 Z " fill="#8212D8" transform="translate(2174.6015625,171.734375)"/><path d="M0 0 C0.79148437 0.74765625 1.58296875 1.4953125 2.3984375 2.265625 C3.52378906 3.29429687 3.52378906 3.29429687 4.671875 4.34375 C15.05864748 14.18385025 21.6096272 25.65783445 28.3984375 38.265625 C28.7284375 15.495625 29.0584375 -7.274375 29.3984375 -30.734375 C70.3184375 -30.734375 111.2384375 -30.734375 153.3984375 -30.734375 C153.3984375 103.245625 153.3984375 237.225625 153.3984375 375.265625 C112.4784375 375.265625 71.5584375 375.265625 29.3984375 375.265625 C28.9034375 341.110625 28.9034375 341.110625 28.3984375 306.265625 C25.4284375 311.545625 22.4584375 316.825625 19.3984375 322.265625 C-1.61642089 351.85233353 -30.97780678 370.77297718 -66.73828125 377.7109375 C-106.03628409 383.35332011 -145.4475292 379.45793029 -180.6015625 360.265625 C-181.67148437 359.688125 -182.74140625 359.110625 -183.84375 358.515625 C-196.08433459 351.64818014 -206.4873418 342.88788075 -216.6015625 333.265625 C-217.28605469 332.64558594 -217.97054687 332.02554687 -218.67578125 331.38671875 C-231.28615536 319.56944993 -240.58575057 304.42522286 -248.6015625 289.265625 C-249.00358887 288.50556152 -249.40561523 287.74549805 -249.81982422 286.96240234 C-280.75075917 227.43470196 -282.3287193 150.40643631 -262.55908203 87.19628906 C-255.71623597 66.25250423 -245.7373374 46.94104318 -232.6015625 29.265625 C-231.89773438 28.316875 -231.19390625 27.368125 -230.46875 26.390625 C-202.41299814 -9.45246483 -163.10894917 -29.28123619 -118.5390625 -35.13671875 C-75.80368807 -39.5680857 -32.00512686 -29.68298832 0 0 Z M-125.8515625 102.66796875 C-138.00869717 116.93835535 -144.37218264 134.83435664 -146.6015625 153.265625 C-146.71242188 154.13058594 -146.82328125 154.99554688 -146.9375 155.88671875 C-149.94095112 183.20188904 -146.46533636 214.46867823 -129.46484375 236.97265625 C-128.84996094 237.72933594 -128.23507812 238.48601562 -127.6015625 239.265625 C-126.93511719 240.09449219 -126.26867187 240.92335938 -125.58203125 241.77734375 C-111.05822011 258.86571975 -90.7873651 268.29733364 -68.6015625 270.265625 C-46.22913867 271.6342784 -23.7934416 267.50291513 -5.91015625 253.09765625 C-3.40958523 250.87959249 -0.99916623 248.59414524 1.3984375 246.265625 C2.09710937 245.64042969 2.79578125 245.01523437 3.515625 244.37109375 C22.36293919 226.95382869 28.3812007 199.94251995 29.58984375 175.375 C30.02536479 148.08234837 23.29296531 120.21040061 4.1496582 99.92358398 C-12.13736116 83.31007078 -33.01655572 74.35469232 -56.22680664 74.02416992 C-83.99185938 73.93980697 -106.69548527 82.21486545 -125.8515625 102.66796875 Z " fill="#8212D8" transform="translate(1034.6015625,171.734375)"/><path d="M0 0 C41.25 0 82.5 0 125 0 C125.33 98.67 125.66 197.34 126 299 C134.06177586 288.63485961 141.96760602 278.35466848 149.58984375 267.6953125 C153.27836474 262.57880232 157.10128575 257.56875043 160.9375 252.5625 C168.41733568 242.79854744 175.73380755 232.92354283 183 223 C190.90861203 212.19909557 198.90052495 201.47353364 207.03417969 190.84082031 C213.20069976 182.76682183 219.2343569 174.59958492 225.23828125 166.40429688 C228.36223967 162.14089021 231.4931335 157.88259897 234.625 153.625 C235.20523926 152.83399902 235.78547852 152.04299805 236.38330078 151.22802734 C236.92970215 150.48504395 237.47610352 149.74206055 238.0390625 148.9765625 C238.51553223 148.32768066 238.99200195 147.67879883 239.48291016 147.01025391 C240.23386963 146.01517822 240.23386963 146.01517822 241 145 C241.84940092 143.71890964 241.84940092 143.71890964 242.71596146 142.41193867 C245 140 245 140 247.78794479 139.38476086 C248.86828617 139.38936982 249.94862755 139.39397879 251.06170654 139.39872742 C252.30408585 139.3918541 253.54646515 139.38498077 254.82649231 139.37789917 C256.20041498 139.39559373 257.57433155 139.41376777 258.94824219 139.43237305 C260.39708914 139.43378363 261.84593967 139.43299133 263.29478455 139.43016052 C267.22655351 139.42872532 271.15756053 139.45813097 275.08915234 139.49303031 C279.19841338 139.52427699 283.30769171 139.5272232 287.41705322 139.53315735 C295.19797659 139.54870082 302.97854889 139.5897359 310.75931764 139.6399048 C319.61771701 139.69578276 328.4761331 139.72328083 337.33466482 139.74838197 C355.55664228 139.80065147 373.77829292 139.88860336 392 140 C390.61333975 142.85681057 389.17501776 145.18244185 387.12890625 147.6171875 C386.56042969 148.29910156 385.99195313 148.98101562 385.40625 149.68359375 C384.7978125 150.40675781 384.189375 151.12992188 383.5625 151.875 C379.1318815 157.19355432 374.74621497 162.53292826 370.5 168 C365.84087707 173.98770434 361.03065569 179.84095781 356.19140625 185.68359375 C352.56299073 190.07421472 348.99829576 194.50515707 345.5 199 C340.8402126 204.98720458 336.03067485 210.84093469 331.19140625 216.68359375 C327.56299073 221.07421472 323.99829576 225.50515707 320.5 230 C315.8402126 235.98720458 311.03067485 241.84093469 306.19140625 247.68359375 C302.56299073 252.07421472 298.99829576 256.50515707 295.5 261 C290.8402126 266.98720458 286.03067485 272.84093469 281.19140625 278.68359375 C277.56299073 283.07421472 273.99829576 287.50515707 270.5 292 C265.84309738 297.98349802 261.03696748 303.83396995 256.20019531 309.67260742 C252.02570731 314.72337112 247.95204171 319.84236268 243.92651367 325.01220703 C239.41667371 330.7863541 234.72637133 336.40217192 230 342 C232.25364869 346.04025835 234.97212697 349.46563854 238 352.9375 C241.91865488 357.49252879 245.70111319 362.12067696 249.375 366.875 C253.85153729 372.65089006 258.56423635 378.1821035 263.37670898 383.6796875 C266.96382411 387.78352247 270.4256136 391.95740824 273.80078125 396.23828125 C278.49968317 402.13903375 283.33795529 407.92788438 288.14013672 413.74462891 C289.97257873 415.96674748 291.80138335 418.19180351 293.62890625 420.41796875 C299.0023298 426.9608676 304.3888608 433.48864426 309.875 439.9375 C313.5741605 444.28635274 317.18245094 448.69500943 320.73046875 453.16796875 C325.47281116 459.08569379 330.32561957 464.91408867 335.15332031 470.76220703 C337.52558052 473.63689463 339.89494137 476.51396207 342.26391602 479.39135742 C343.42305281 480.79924161 344.5823959 482.20695598 345.74194336 483.61450195 C348.69919475 487.20429837 351.65423601 490.7958784 354.60546875 494.390625 C359.9872755 500.94216737 365.38133595 507.47929217 370.875 513.9375 C375.35682638 519.21028411 379.71184276 524.56885967 384 530 C384.97874951 531.22038676 385.95794797 532.44041355 386.9375 533.66015625 C387.95857564 534.93991088 388.97941013 536.21985794 390 537.5 C390.49371094 538.11222412 390.98742188 538.72444824 391.49609375 539.35522461 C395 543.7729506 395 543.7729506 395 546 C375.65048209 546.39792246 356.30179904 546.6972825 336.94903183 546.88080692 C327.96202215 546.96830535 318.97756072 547.08747678 309.9921875 547.2824707 C302.15610899 547.45244175 294.32187591 547.56170704 286.48400521 547.59950441 C282.33639412 547.6215895 278.19405956 547.67307454 274.04814911 547.79741096 C248.92050659 548.52193201 248.92050659 548.52193201 242.49287415 544.38724899 C238.55115878 540.56351542 236.19841781 536.26071242 234.06079865 531.25181389 C232.21297579 527.3293417 229.57586838 523.96845201 227 520.5 C225.99662635 519.08572076 224.9962218 517.66932609 224 516.25 C223.505 515.54875 223.01 514.8475 222.5 514.125 C208.25 493.9375 208.25 493.9375 194 473.75 C193.50516113 473.0489917 193.01032227 472.3479834 192.50048828 471.62573242 C191.49880957 470.20666042 190.4971821 468.78755225 189.49560547 467.3684082 C187.02170505 463.86324726 184.54696634 460.35868485 182.0703125 456.85546875 C176.09597943 448.40242303 170.14800966 439.93140407 164.21582031 431.44873047 C157.99272031 422.55343887 151.73005311 413.68628186 145.46044922 404.82373047 C144.41820941 403.35035417 143.37621885 401.87680152 142.33447266 400.40307617 C141.37246815 399.0421654 140.40996776 397.6816049 139.44677734 396.3215332 C134.9170736 389.91269118 130.46801567 383.45380042 126 377 C125.67 432.77 125.34 488.54 125 546 C83.75 546 42.5 546 0 546 C0 365.82 0 185.64 0 0 Z " fill="#8212D8" transform="translate(1482,1)"/><path d="M0 0 C46.2 0 92.4 0 140 0 C157.38990605 44.26521539 174.77960926 88.53039695 192.10357666 132.82144165 C198.10136175 148.15547046 204.11122389 163.48473637 210.125 178.8125 C218.77692439 200.86451449 227.39824768 222.92837048 236 245 C241.43478728 231.31963712 246.48607872 217.51216812 251.47137451 203.6625061 C253.79710685 197.20273241 256.13088061 190.74586602 258.46484375 184.2890625 C258.70068428 183.63643999 258.93652481 182.98381748 259.17951202 182.31141853 C263.70277912 169.79633171 268.27629632 157.30005701 272.875 144.8125 C277.76531818 131.53077785 282.64595486 118.2456728 287.49609375 104.94921875 C287.73568565 104.29246469 287.97527756 103.63571064 288.22212982 102.95905495 C290.78057297 95.94576661 293.33734455 88.93187262 295.89208984 81.91723633 C305.85721257 54.5849819 315.94242809 27.29912377 326 0 C371.54 0 417.08 0 464 0 C463.19546617 4.02266915 462.30152312 6.9760025 460.7265625 10.6875 C460.24171387 11.83686035 459.75686523 12.9862207 459.25732422 14.17041016 C458.71326718 15.44696185 458.16915711 16.72349096 457.625 18 C457.04788956 19.36357905 456.47124385 20.72735485 455.89501953 22.09130859 C454.62449192 25.09673532 453.35123246 28.10098586 452.07617188 31.10449219 C449.90299631 36.22549945 447.73989016 41.35072998 445.578125 46.4765625 C442.37467498 54.07127674 439.16905937 61.66507048 435.9609375 69.2578125 C431.53275503 79.73836186 427.10670508 90.21981025 422.68145752 100.70159912 C420.70440682 105.3844424 418.72719507 110.06721768 416.75 114.75 C415.95833257 116.62499968 415.1666659 118.49999968 414.375 120.375 C375.1875 213.1875 336 306 256.43765259 494.43713379 C255.64547269 496.31335255 254.8532974 498.18957325 254.06112671 500.0657959 C252.08985013 504.7346648 250.11849515 509.40350056 248.14697266 514.07226562 C244.49057009 522.7312241 240.834891 531.39048562 237.1819458 540.05090332 C235.48707639 544.06897453 233.79177062 548.08686157 232.09643555 552.10473633 C231.30113497 553.98989915 230.50603975 555.87514862 229.71118164 557.76049805 C227.14682171 563.84289633 224.576704 569.92282066 222 576 C221.58979614 576.96824707 221.17959229 577.93649414 220.75695801 578.93408203 C219.51006422 581.87393038 218.25949972 584.81218977 217.0078125 587.75 C216.62116425 588.66225342 216.23451599 589.57450684 215.83615112 590.5144043 C215.47917145 591.35011963 215.12219177 592.18583496 214.75439453 593.046875 C214.43906769 593.78776367 214.12374084 594.52865234 213.79885864 595.29199219 C213 597 213 597 212 598 C210.22839682 598.09634459 208.45291592 598.12187481 206.67869568 598.12025452 C205.52458191 598.12162918 204.37046814 598.12300385 203.18138123 598.12442017 C201.90392532 598.12082489 200.62646942 598.11722961 199.31030273 598.11352539 C197.96041872 598.11324352 196.61053456 598.11340125 195.26065063 598.1139679 C191.58519392 598.11425587 187.90976957 598.10835916 184.2343204 598.10139394 C180.39726851 598.09516038 176.56021596 598.0945566 172.72315979 598.09336853 C165.45228782 598.09025522 158.18143081 598.08204183 150.91056544 598.07201904 C142.63500648 598.0608579 134.35944682 598.05534745 126.08388221 598.05032361 C109.05591281 598.03985922 92.02795798 598.02225978 75 598 C75.46759477 596.56995512 75.93756635 595.14068727 76.40852356 593.71174622 C76.66998075 592.91573911 76.93143793 592.119732 77.20081806 591.29960346 C78.27010316 588.22279254 79.60275228 585.32219519 81.01171875 582.38671875 C81.60221921 581.14518499 82.19271372 579.9036484 82.78320312 578.66210938 C83.09265869 578.01653076 83.40211426 577.37095215 83.72094727 576.70581055 C89.69540165 564.23023227 95.42394304 551.65802142 101 539 C106.05406157 527.53887174 111.21462404 516.13962633 116.5625 504.8125 C123.21608815 490.71826059 129.69093398 476.54892674 136.11882019 462.35054016 C139.09033741 455.79111432 142.08796551 449.24375638 145.08837891 442.69750977 C146.43652081 439.75553428 147.78123653 436.81203437 149.12255859 433.86694336 C149.78090202 432.42170201 150.43926778 430.97647083 151.09765625 429.53125 C151.42054626 428.82235123 151.74343628 428.11345245 152.07611084 427.3830719 C154.01654985 423.13076323 155.98130836 418.89075178 157.9666748 414.65924072 C159.2159305 411.99063436 160.45177969 409.31595154 161.6852417 406.64001465 C162.537974 404.8028402 163.40862951 402.97401819 164.27978516 401.14550781 C165.0404126 399.48793457 165.0404126 399.48793457 165.81640625 397.796875 C166.26443604 396.84135742 166.71246582 395.88583984 167.17407227 394.90136719 C169.07819965 388.21243728 166.14902611 382.41305408 163.421875 376.40234375 C163.05939667 375.58446381 162.69691833 374.76658386 162.32345581 373.92391968 C161.14014001 371.25821447 159.94498039 368.59799378 158.75 365.9375 C157.91876279 364.06904644 157.08853172 362.20014497 156.25927734 360.33081055 C154.60198561 356.59581162 152.94136461 352.86232359 151.27832031 349.12988281 C148.34808535 342.54374151 145.47972251 335.93172284 142.625 329.3125 C141.59141715 326.92175768 140.55755173 324.53113752 139.5234375 322.140625 C139.25436584 321.51842072 138.98529419 320.89621643 138.70806885 320.25515747 C134.56825611 310.68535331 130.40790283 301.12445402 126.25 291.5625 C125.82143707 290.57689087 125.39287415 289.59128174 124.95132446 288.57580566 C117.00405484 270.29982861 109.04321586 252.02978384 101.07666016 233.76220703 C97.90534241 226.49006349 94.73550246 219.21727577 91.56552124 211.94454956 C89.79373853 207.87967456 88.02186475 203.81483924 86.25 199.75 C85.54166623 198.12500019 84.83333289 196.50000019 84.125 194.875 C83.774375 194.070625 83.42375 193.26625 83.0625 192.4375 C70.66666667 164 58.27083333 135.5625 45.875 107.125 C45.52439011 106.32066025 45.17378021 105.5163205 44.81254578 104.68760681 C44.1040581 103.06225154 43.39557218 101.4368955 42.68708801 99.8115387 C40.91863047 95.75446813 39.15014266 91.69741075 37.3815918 87.64038086 C34.16578597 80.26328718 30.95019776 72.88609905 27.73576355 65.50840759 C26.64677722 63.00906101 25.5576499 60.50977591 24.46850586 58.01049805 C23.04559596 54.74527358 21.62330575 51.47978016 20.20141602 48.21411133 C16.756611 40.30509404 13.29995301 32.40157077 9.8203125 24.5078125 C8.83874612 22.27764439 7.85739161 20.04738315 6.87606812 17.81710815 C5.9575851 15.73307303 5.03513726 13.65082368 4.11254883 11.56860352 C3.56312019 10.32056048 3.01387394 9.07243712 2.46484375 7.82421875 C1.986521 6.74229248 1.50819824 5.66036621 1.01538086 4.5456543 C0 2 0 2 0 0 Z " fill="#8212D8" transform="translate(2682,141)"/><path d="M0 0 C0 44.22 0 88.44 0 134 C-27.225 134.495 -27.225 134.495 -55 135 C-76.83506015 138.44764108 -98.16382717 142.84744445 -115 158 C-115.598125 158.495 -116.19625 158.99 -116.8125 159.5 C-132.30470121 173.33232251 -136.80422239 196.74511716 -138.17363334 216.50550175 C-138.44168886 222.42303493 -138.43808979 228.34028069 -138.43237305 234.26269531 C-138.44141998 236.19666151 -138.45175421 238.13062204 -138.46325684 240.0645752 C-138.49050923 245.24505955 -138.50006747 250.42543422 -138.50611091 255.60598087 C-138.5155785 261.04585566 -138.54178771 266.48565111 -138.56611633 271.92547607 C-138.60955664 282.19542456 -138.63824091 292.46535745 -138.66143972 302.73536944 C-138.69370748 316.63523263 -138.74914317 330.53500299 -138.80318546 344.43479538 C-138.887555 366.28983573 -138.94129311 388.14484072 -139 410 C-180.25 410 -221.5 410 -264 410 C-264 276.02 -264 142.04 -264 4 C-222.75 4 -181.5 4 -139 4 C-138.67 28.09 -138.34 52.18 -138 77 C-135.03 72.71 -132.06 68.42 -129 64 C-123.875 58.1875 -123.875 58.1875 -121.3203125 55.4765625 C-119.36915982 53.39401907 -117.55646947 51.26838986 -115.75 49.0625 C-106.51632822 38.51281426 -94.86110109 30.31474952 -83 23 C-82.37931641 22.61215332 -81.75863281 22.22430664 -81.11914062 21.82470703 C-56.2908143 6.48388882 -28.99078979 0 0 0 Z " fill="#8212D8" transform="translate(2676,137)"/><path d="M0 0 C41.25 0 82.5 0 125 0 C125 133.98 125 267.96 125 406 C83.75 406 42.5 406 0 406 C0 272.02 0 138.04 0 0 Z " fill="#8212D8" transform="translate(1273,141)"/><path d="M0 0 C41.25 0 82.5 0 125 0 C125 32.01 125 64.02 125 97 C83.75 97 42.5 97 0 97 C0 64.99 0 32.98 0 0 Z " fill="#FF0000" transform="translate(1273,1)"/><path d="M0 0 C21.45 0 42.9 0 65 0 C65 21.78 65 43.56 65 66 C43.55 66 22.1 66 0 66 C0 44.22 0 22.44 0 0 Z " fill="#8212D8" transform="translate(82,407)"/><path d="M0 0 C21.45 0 42.9 0 65 0 C65 21.78 65 43.56 65 66 C43.55 66 22.1 66 0 66 C0 44.22 0 22.44 0 0 Z " fill="#8212D8" transform="translate(4,286)"/><path d="M0 0 C21.45 0 42.9 0 65 0 C65 21.45 65 42.9 65 65 C43.55 65 22.1 65 0 65 C0 43.55 0 22.1 0 0 Z " fill="#8212D8" transform="translate(5,141)"/><path d="M0 0 C16.5 0 33 0 50 0 C50 16.5 50 33 50 50 C33.5 50 17 50 0 50 C0 33.5 0 17 0 0 Z " fill="#8212D8" transform="translate(112,496)"/><path d="M0 0 C16.5 0 33 0 50 0 C50 16.5 50 33 50 50 C33.5 50 17 50 0 50 C0 33.5 0 17 0 0 Z " fill="#8212D8" transform="translate(0,396)"/></svg>